/* XPM */
static char * arc_xpm[] = {
"16 16 2 1",
". c #FFFFFF",
"X c #000000",
"................",
"................",
"................",
"....XXXXXXXX....",
"...X........X...",
"..X..........X..",
".X............X.",
".X............X.",
"................",
"................",
"................",
"................",
"................",
"................",
"................",
"................"
};
