/* XPM */
static char * exit_xpm[] = {
"16 16 3 1",
" 	c None",
".	c #FF0000",  /* red */
"X	c #FFFFFF",  /* white */
"                ",
" .............. ",
" .XXXXXXXXXXXX. ",
" .X........XX.. ",
" .XX......XX.X. ",
" .XXX....XX..X. ",
" .XXXX..XX...X. ",
" .XXXXX.XX...X. ",
" .XXXXX.XX...X. ",
" .XXXX..XX...X. ",
" .XXX....XX..X. ",
" .XX......XX.X. ",
" .X........XX.. ",
" .XXXXXXXXXXXX. ",
" .............. ",
"                "};
