/* XPM */
static char * line_xpm[] = {
"16 16 2 1",
". c #FFFFFF",
"X c #000000",
"................",
"................",
"................",
"................",
"................",
"................",
"................",
"XX............XX",
"XX............XX",
"................",
"................",
"................",
"................",
"................",
"................",
"................"
};
