/* XPM */
static char * rect_xpm[] = {
"16 16 2 1",
". c #FFFFFF",
"X c #000000",
"................",
"................",
"................",
"...XXXXXXXXXX...",
"...X........X...",
"...X........X...",
"...X........X...",
"...X........X...",
"...X........X...",
"...X........X...",
"...XXXXXXXXXX...",
"................",
"................",
"................",
"................",
"................"
};
